<svg width="16" height="16" viewBox="0 0 16 16" fill="none" xmlns="http://www.w3.org/2000/svg">
<path d="M7.06667 9.19992L5.61667 7.74992C5.49445 7.6277 5.34445 7.56659 5.16667 7.56659C4.98889 7.56659 4.83333 7.63325 4.7 7.76659C4.57778 7.88881 4.51667 8.04436 4.51667 8.23325C4.51667 8.42214 4.57778 8.5777 4.7 8.69992L6.6 10.5999C6.72222 10.7221 6.87778 10.7833 7.06667 10.7833C7.25556 10.7833 7.41111 10.7221 7.53333 10.5999L11.3167 6.81659C11.4389 6.69436 11.5 6.54436 11.5 6.36659C11.5 6.18881 11.4333 6.03325 11.3 5.89992C11.1778 5.7777 11.0222 5.71659 10.8333 5.71659C10.6444 5.71659 10.4889 5.7777 10.3667 5.89992L7.06667 9.19992ZM8 14.6666C7.07778 14.6666 6.21111 14.4915 5.4 14.1413C4.58889 13.791 3.88333 13.3161 3.28333 12.7166C2.68333 12.1166 2.20845 11.411 1.85867 10.5999C1.50889 9.78881 1.33378 8.92214 1.33333 7.99992C1.33333 7.0777 1.50845 6.21103 1.85867 5.39992C2.20889 4.58881 2.68378 3.88325 3.28333 3.28325C3.88333 2.68325 4.58889 2.20836 5.4 1.85859C6.21111 1.50881 7.07778 1.3337 8 1.33325C8.92222 1.33325 9.78889 1.50836 10.6 1.85859C11.4111 2.20881 12.1167 2.6837 12.7167 3.28325C13.3167 3.88325 13.7918 4.58881 14.142 5.39992C14.4922 6.21103 14.6671 7.0777 14.6667 7.99992C14.6667 8.92214 14.4916 9.78881 14.1413 10.5999C13.7911 11.411 13.3162 12.1166 12.7167 12.7166C12.1167 13.3166 11.4111 13.7917 10.6 14.1419C9.78889 14.4921 8.92222 14.667 8 14.6666Z" fill="#40A9FF"/>
</svg>
